<?xml version="1.0" standalone="no"?>
<!DOCTYPE svg PUBLIC "-//W3C//DTD SVG 20010904//EN"
 "http://www.w3.org/TR/2001/REC-SVG-20010904/DTD/svg10.dtd">
<svg version="1.0" xmlns="http://www.w3.org/2000/svg"
 width="260.000000pt" height="260.000000pt" viewBox="0 0 260.000000 260.000000"
 preserveAspectRatio="xMidYMid meet">
<metadata>
Created by potrace 1.11, written by Peter Selinger 2001-2013
</metadata>
<g transform="translate(0.000000,260.000000) scale(0.100000,-0.100000)"
fill="#000000" stroke="none">
<path d="M638 1890 c-48 -14 -117 -70 -144 -116 -21 -35 -28 -64 -32 -120 -4
-65 -1 -80 22 -128 35 -72 98 -127 232 -203 184 -104 234 -161 234 -266 0 -60
-23 -104 -73 -141 -43 -32 -158 -35 -226 -6 -64 28 -129 98 -172 186 -22 45
-37 64 -51 64 -14 0 -17 -5 -13 -22 2 -13 12 -75 20 -138 22 -164 24 -170 45
-170 10 0 20 9 23 20 8 33 32 34 133 5 171 -49 303 -26 397 68 54 54 77 108
77 188 0 129 -68 211 -278 335 -202 119 -265 201 -228 298 25 64 71 91 156 91
126 -1 218 -84 273 -247 4 -10 16 -18 28 -18 18 0 21 4 16 33 -3 17 -12 92
-18 165 -14 143 -21 155 -63 105 l-23 -27 -89 27 c-90 28 -188 35 -246 17z"/>
<path d="M1240 1867 c0 -10 16 -17 48 -22 65 -10 80 -20 92 -63 13 -50 13
-784 0 -834 -12 -43 -31 -56 -95 -64 -30 -5 -45 -12 -45 -21 0 -12 48 -14 328
-11 309 3 330 5 382 26 74 29 120 69 155 133 53 99 36 218 -42 290 -31 30
-112 72 -158 83 -29 7 -29 8 20 24 110 37 155 100 155 213 0 114 -55 186 -175
231 -56 21 -79 23 -362 26 -261 3 -303 2 -303 -11z m533 -61 c106 -32 151 -97
145 -207 -4 -80 -23 -112 -89 -149 -38 -21 -60 -25 -161 -28 l-118 -4 0 194
c0 107 3 198 7 201 12 12 169 7 216 -7z m-63 -457 c116 -14 181 -45 213 -100
31 -55 40 -115 27 -175 -24 -108 -101 -155 -265 -162 -143 -6 -135 -20 -135
239 l0 209 38 0 c21 0 76 -5 122 -11z"/>
</g>
</svg>
